<svg width="198" height="112" viewBox="0 0 198 112" fill="none" xmlns="http://www.w3.org/2000/svg">
<g filter="url(#filter0_d_2_2)">
<path d="M73.7133 92.9839L64.4327 94.6203L58.7264 62.2582L23.431 68.4817L29.1373 100.844L19.9047 102.472L7.55944 32.4581L16.792 30.8302L22.0998 60.9322L57.3952 54.7087L52.0874 24.6066L61.368 22.9702L73.7133 92.9839ZM123.272 52.3645L93.8914 57.5451L99.3433 88.4646L90.1108 90.0926L77.7655 20.0789L121.139 12.4309L122.479 20.0286L88.3377 26.0486L92.5602 49.9956L121.941 44.8149L123.272 52.3645ZM194.618 62.1951C192.845 66.0115 189.976 69.1451 186.012 71.596C182.074 74.0091 177.285 75.7131 171.642 76.708C165.936 77.7141 160.636 77.2769 155.743 75.3961C150.845 73.4834 146.742 70.2734 143.435 65.7661C140.16 61.2532 137.917 55.7485 136.705 49.2522L135.628 43.1452C133.769 32.5983 134.78 23.9912 138.661 17.3239C142.575 10.651 148.988 6.52881 157.9 4.95738C165.209 3.66859 171.422 4.5067 176.54 7.47172C181.651 10.4047 185.309 15.2137 187.512 21.8988L178.28 23.5267C174.915 14.5673 168.584 10.9073 159.288 12.5465C153.101 13.6375 148.789 16.6455 146.352 21.5706C143.941 26.458 143.446 33.0239 144.867 41.2683L145.876 46.9906C147.261 54.8447 150.158 60.7794 154.568 64.7946C158.973 68.7778 164.236 70.2296 170.359 69.1499C173.821 68.5395 176.783 67.6206 179.244 66.3934C181.705 65.1661 183.624 63.4891 185.001 61.3622L182.228 45.638L166.023 48.4954L164.7 40.9939L190.09 36.517L194.618 62.1951Z" fill="black"/>
<path d="M73.7133 92.9839L73.887 93.9687L74.8718 93.795L74.6981 92.8102L73.7133 92.9839ZM64.4327 94.6203L63.4479 94.794L63.6215 95.7788L64.6063 95.6051L64.4327 94.6203ZM58.7264 62.2582L59.7112 62.0846L59.5375 61.0998L58.5527 61.2734L58.7264 62.2582ZM23.431 68.4817L23.2574 67.4969L22.2726 67.6706L22.4462 68.6554L23.431 68.4817ZM29.1373 100.844L29.311 101.829L30.2958 101.655L30.1221 100.67L29.1373 100.844ZM19.9047 102.472L18.9199 102.645L19.0936 103.63L20.0784 103.457L19.9047 102.472ZM7.55944 32.4581L7.3858 31.4733L6.40099 31.647L6.57464 32.6318L7.55944 32.4581ZM16.792 30.8302L17.7768 30.6565L17.6032 29.6717L16.6184 29.8454L16.792 30.8302ZM22.0998 60.9322L21.115 61.1058L21.2887 62.0906L22.2735 61.917L22.0998 60.9322ZM57.3952 54.7087L57.5688 55.6935L58.5536 55.5198L58.38 54.535L57.3952 54.7087ZM52.0874 24.6066L51.9137 23.6218L50.9289 23.7955L51.1026 24.7803L52.0874 24.6066ZM61.368 22.9702L62.3528 22.7966L62.1792 21.8118L61.1944 21.9854L61.368 22.9702ZM73.5397 91.9991L64.259 93.6355L64.6063 95.6051L73.887 93.9687L73.5397 91.9991ZM65.4175 94.4467L59.7112 62.0846L57.7416 62.4319L63.4479 94.794L65.4175 94.4467ZM58.5527 61.2734L23.2574 67.4969L23.6047 69.4666L58.9 63.243L58.5527 61.2734ZM22.4462 68.6554L28.1525 101.017L30.1221 100.67L24.4158 68.3081L22.4462 68.6554ZM28.9637 99.859L19.7311 101.487L20.0784 103.457L29.311 101.829L28.9637 99.859ZM20.8896 102.298L8.54425 32.2845L6.57464 32.6318L18.9199 102.645L20.8896 102.298ZM7.73309 33.4429L16.9657 31.815L16.6184 29.8454L7.3858 31.4733L7.73309 33.4429ZM15.8072 31.0038L21.115 61.1058L23.0846 60.7585L17.7768 30.6565L15.8072 31.0038ZM22.2735 61.917L57.5688 55.6935L57.2215 53.7239L21.9262 59.9474L22.2735 61.917ZM58.38 54.535L53.0722 24.433L51.1026 24.7803L56.4104 54.8823L58.38 54.535ZM52.261 25.5914L61.5417 23.955L61.1944 21.9854L51.9137 23.6218L52.261 25.5914ZM60.3832 23.1439L72.7285 93.1575L74.6981 92.8102L62.3528 22.7966L60.3832 23.1439ZM123.272 52.3645L123.446 53.3493L124.431 53.1757L124.257 52.1909L123.272 52.3645ZM93.8914 57.5451L93.7177 56.5603L92.7329 56.734L92.9066 57.7188L93.8914 57.5451ZM99.3433 88.4646L99.517 89.4494L100.502 89.2758L100.328 88.291L99.3433 88.4646ZM90.1108 90.0926L89.126 90.2662L89.2996 91.251L90.2844 91.0774L90.1108 90.0926ZM77.7655 20.0789L77.5918 19.0941L76.607 19.2677L76.7807 20.2525L77.7655 20.0789ZM121.139 12.4309L122.124 12.2573L121.95 11.2725L120.966 11.4461L121.139 12.4309ZM122.479 20.0286L122.653 21.0134L123.637 20.8397L123.464 19.8549L122.479 20.0286ZM88.3377 26.0486L88.1641 25.0638L87.1792 25.2374L87.3529 26.2222L88.3377 26.0486ZM92.5602 49.9956L91.5754 50.1692L91.749 51.154L92.7339 50.9804L92.5602 49.9956ZM121.941 44.8149L122.926 44.6413L122.752 43.6565L121.767 43.8301L121.941 44.8149ZM123.098 51.3797L93.7177 56.5603L94.065 58.5299L123.446 53.3493L123.098 51.3797ZM92.9066 57.7188L98.3585 88.6383L100.328 88.291L94.8762 57.3715L92.9066 57.7188ZM99.1697 87.4798L89.9371 89.1078L90.2844 91.0774L99.517 89.4494L99.1697 87.4798ZM91.0956 89.9189L78.7503 19.9052L76.7807 20.2525L89.126 90.2662L91.0956 89.9189ZM77.9391 21.0637L121.313 13.4157L120.966 11.4461L77.5918 19.0941L77.9391 21.0637ZM120.155 12.6046L121.494 20.2022L123.464 19.8549L122.124 12.2573L120.155 12.6046ZM122.305 19.0437L88.1641 25.0638L88.5114 27.0334L122.653 21.0134L122.305 19.0437ZM87.3529 26.2222L91.5754 50.1692L93.545 49.8219L89.3225 25.8749L87.3529 26.2222ZM92.7339 50.9804L122.115 45.7998L121.767 43.8301L92.3866 49.0108L92.7339 50.9804ZM120.956 44.9886L122.287 52.5381L124.257 52.1909L122.926 44.6413L120.956 44.9886ZM194.618 62.1951L195.525 62.6165L195.657 62.3312L195.603 62.0215L194.618 62.1951ZM186.012 71.596L186.535 72.4486L186.538 72.4465L186.012 71.596ZM155.743 75.3961L155.38 76.3277L155.385 76.3296L155.743 75.3961ZM143.435 65.7661L142.626 66.3534L142.629 66.3576L143.435 65.7661ZM136.705 49.2522L135.72 49.4258L135.722 49.4355L136.705 49.2522ZM138.661 17.3239L137.799 16.818L137.797 16.8208L138.661 17.3239ZM176.54 7.47172L176.038 8.33698L176.042 8.33908L176.54 7.47172ZM187.512 21.8988L187.686 22.8836L188.824 22.683L188.462 21.5857L187.512 21.8988ZM178.28 23.5267L177.344 23.8783L177.636 24.6558L178.454 24.5115L178.28 23.5267ZM146.352 21.5706L145.455 21.1271L145.455 21.1283L146.352 21.5706ZM144.867 41.2683L143.881 41.4381L143.882 41.442L144.867 41.2683ZM154.568 64.7946L153.895 65.5341L153.897 65.5363L154.568 64.7946ZM185.001 61.3622L185.84 61.9056L186.054 61.5756L185.986 61.1885L185.001 61.3622ZM182.228 45.638L183.213 45.4643L183.039 44.4795L182.055 44.6532L182.228 45.638ZM166.023 48.4954L165.038 48.669L165.212 49.6538L166.197 49.4802L166.023 48.4954ZM164.7 40.9939L164.527 40.0091L163.542 40.1827L163.716 41.1675L164.7 40.9939ZM190.09 36.517L191.075 36.3434L190.901 35.3586L189.916 35.5322L190.09 36.517ZM193.711 61.7738C192.029 65.3941 189.303 68.3859 185.486 70.7454L186.538 72.4465C190.65 69.9044 193.661 66.6289 195.525 62.6165L193.711 61.7738ZM185.49 70.7434C181.681 73.0773 177.016 74.745 171.469 75.7232L171.816 77.6928C177.553 76.6812 182.468 74.941 186.535 72.4486L185.49 70.7434ZM171.469 75.7232C165.922 76.7012 160.808 76.2716 156.102 74.4627L155.385 76.3296C160.465 78.2822 165.95 78.7271 171.816 77.6928L171.469 75.7232ZM156.107 74.4646C151.396 72.6253 147.443 69.5389 144.241 65.1745L142.629 66.3576C146.04 71.0078 150.293 74.3414 155.38 76.3277L156.107 74.4646ZM144.244 65.1788C141.071 60.8062 138.878 55.4461 137.688 49.0688L135.722 49.4355C136.956 56.051 139.249 61.7002 142.626 66.3534L144.244 65.1788ZM137.69 49.0785L136.613 42.9715L134.644 43.3188L135.72 49.4258L137.69 49.0785ZM136.613 42.9715C134.779 32.5676 135.802 24.2231 139.526 17.827L137.797 16.8208C133.758 23.7592 132.759 32.6289 134.644 43.3188L136.613 42.9715ZM139.524 17.8298C143.264 11.4538 149.396 7.47228 158.074 5.94219L157.726 3.97257C148.58 5.58533 141.887 9.84815 137.799 16.818L139.524 17.8298ZM158.074 5.94219C165.212 4.68358 171.173 5.51775 176.038 8.33697L177.041 6.60646C171.672 3.49565 165.207 2.65359 157.726 3.97257L158.074 5.94219ZM176.042 8.33908C180.9 11.1263 184.421 15.7129 186.563 22.2118L188.462 21.5857C186.197 14.7145 182.403 9.68306 177.037 6.60435L176.042 8.33908ZM187.339 20.914L178.106 22.5419L178.454 24.5115L187.686 22.8836L187.339 20.914ZM179.216 23.1752C177.478 18.5465 174.929 15.1739 171.509 13.1964C168.087 11.2179 163.926 10.7134 159.114 11.5617L159.461 13.5313C163.947 12.7405 167.599 13.2464 170.508 14.9279C173.418 16.6105 175.717 19.5476 177.344 23.8783L179.216 23.1752ZM159.114 11.5617C152.665 12.6989 148.055 15.8732 145.455 21.1271L147.248 22.0141C149.522 17.4179 153.536 14.5761 159.461 13.5313L159.114 11.5617ZM145.455 21.1283C142.913 26.2822 142.443 33.09 143.881 41.4381L145.852 41.0985C144.449 32.9578 144.969 26.6337 147.248 22.013L145.455 21.1283ZM143.882 41.442L144.891 47.1642L146.861 46.817L145.852 41.0947L143.882 41.442ZM144.891 47.1642C146.301 55.1631 149.274 61.3266 153.895 65.5341L155.241 64.0552C151.042 60.2322 148.22 54.5263 146.861 46.817L144.891 47.1642ZM153.897 65.5363C158.543 69.7375 164.123 71.2651 170.533 70.1347L170.186 68.1651C164.35 69.1941 159.402 67.8181 155.239 64.0529L153.897 65.5363ZM170.533 70.1347C174.065 69.512 177.123 68.5684 179.69 67.2883L178.798 65.4985C176.443 66.6728 173.578 67.567 170.186 68.1651L170.533 70.1347ZM179.69 67.2883C182.297 65.9882 184.358 64.1954 185.84 61.9056L184.161 60.8188C182.89 62.7827 181.113 64.344 178.798 65.4985L179.69 67.2883ZM185.986 61.1885L183.213 45.4643L181.243 45.8116L184.016 61.5358L185.986 61.1885ZM182.055 44.6532L165.85 47.5106L166.197 49.4802L182.402 46.6228L182.055 44.6532ZM167.008 48.3217L165.685 40.8202L163.716 41.1675L165.038 48.669L167.008 48.3217ZM164.874 41.9787L190.264 37.5018L189.916 35.5322L164.527 40.0091L164.874 41.9787ZM189.105 36.6907L193.633 62.3688L195.603 62.0215L191.075 36.3434L189.105 36.6907Z" fill="#363636"/>
</g>
<defs>
<filter id="filter0_d_2_2" x="0.389862" y="0.404205" width="197.017" height="111.029" filterUnits="userSpaceOnUse" color-interpolation-filters="sRGB">
<feFlood flood-opacity="0" result="BackgroundImageFix"/>
<feColorMatrix in="SourceAlpha" type="matrix" values="0 0 0 0 0 0 0 0 0 0 0 0 0 0 0 0 0 0 127 0" result="hardAlpha"/>
<feOffset dx="-3" dy="4"/>
<feGaussianBlur stdDeviation="2"/>
<feComposite in2="hardAlpha" operator="out"/>
<feColorMatrix type="matrix" values="0 0 0 0 0 0 0 0 0 0 0 0 0 0 0 0 0 0 0.25 0"/>
<feBlend mode="normal" in2="BackgroundImageFix" result="effect1_dropShadow_2_2"/>
<feBlend mode="normal" in="SourceGraphic" in2="effect1_dropShadow_2_2" result="shape"/>
</filter>
</defs>
</svg>
